<mxfile host="app.diagrams.net" modified="2022-10-14T08:36:41.798Z" agent="5.0 (Windows NT 10.0; Win64; x64) AppleWebKit/537.36 (KHTML, like Gecko) Chrome/95.0.4638.69 Safari/537.36" etag="jqwvSorX_2sRJPPFdx9X" version="20.4.0" type="github">
  <diagram id="UjZggHJvCZsFsILBjRFr" name="第 1 页">
    <mxGraphModel dx="1422" dy="744" grid="1" gridSize="10" guides="1" tooltips="1" connect="1" arrows="1" fold="1" page="1" pageScale="1" pageWidth="1169" pageHeight="827" math="0" shadow="0">
      <root>
        <mxCell id="0" />
        <mxCell id="1" parent="0" />
        <mxCell id="YdISK77xGLCPP6SEkKly-1" value="a" style="shape=cube;whiteSpace=wrap;html=1;boundedLbl=1;backgroundOutline=1;darkOpacity=0.05;darkOpacity2=0.1;size=20;direction=east;flipH=1;fillColor=#dae8fc;strokeColor=#6c8ebf;" vertex="1" parent="1">
          <mxGeometry x="26.73" y="89.08" width="20" height="230" as="geometry" />
        </mxCell>
        <mxCell id="YdISK77xGLCPP6SEkKly-40" style="edgeStyle=orthogonalEdgeStyle;rounded=0;orthogonalLoop=1;jettySize=auto;html=1;exitX=0;exitY=0;exitDx=0;exitDy=49.99999999999999;exitPerimeter=0;" edge="1" parent="1" source="YdISK77xGLCPP6SEkKly-3" target="YdISK77xGLCPP6SEkKly-39">
          <mxGeometry relative="1" as="geometry" />
        </mxCell>
        <mxCell id="YdISK77xGLCPP6SEkKly-3" value="" style="shape=cube;whiteSpace=wrap;html=1;boundedLbl=1;backgroundOutline=1;darkOpacity=0.05;darkOpacity2=0.1;size=20;direction=east;flipH=1;fillColor=#d5e8d4;strokeColor=#82b366;" vertex="1" parent="1">
          <mxGeometry x="170" y="144.07999999999998" width="36" height="120" as="geometry" />
        </mxCell>
        <mxCell id="YdISK77xGLCPP6SEkKly-4" value="" style="shape=cube;whiteSpace=wrap;html=1;boundedLbl=1;backgroundOutline=1;darkOpacity=0.05;darkOpacity2=0.1;size=7;direction=east;flipH=1;fillColor=#dae8fc;strokeColor=#6c8ebf;" vertex="1" parent="1">
          <mxGeometry x="960" y="592.94" width="30" height="20" as="geometry" />
        </mxCell>
        <mxCell id="YdISK77xGLCPP6SEkKly-5" value="" style="shape=cube;whiteSpace=wrap;html=1;boundedLbl=1;backgroundOutline=1;darkOpacity=0.05;darkOpacity2=0.1;size=7;direction=east;flipH=1;fillColor=#d5e8d4;strokeColor=#82b366;" vertex="1" parent="1">
          <mxGeometry x="960" y="622.94" width="30" height="20" as="geometry" />
        </mxCell>
        <mxCell id="YdISK77xGLCPP6SEkKly-7" value="图片" style="text;html=1;strokeColor=none;fillColor=none;align=left;verticalAlign=middle;whiteSpace=wrap;rounded=0;fontStyle=1" vertex="1" parent="1">
          <mxGeometry x="1001" y="590" width="138" height="23.88" as="geometry" />
        </mxCell>
        <mxCell id="YdISK77xGLCPP6SEkKly-8" value="卷积层1" style="text;html=1;strokeColor=none;fillColor=none;align=left;verticalAlign=middle;whiteSpace=wrap;rounded=0;fontStyle=1" vertex="1" parent="1">
          <mxGeometry x="1001" y="620" width="138" height="23.88" as="geometry" />
        </mxCell>
        <mxCell id="YdISK77xGLCPP6SEkKly-9" value="残差块" style="text;html=1;strokeColor=none;fillColor=none;align=left;verticalAlign=middle;whiteSpace=wrap;rounded=0;fontStyle=1" vertex="1" parent="1">
          <mxGeometry x="1001" y="701.12" width="138" height="23.88" as="geometry" />
        </mxCell>
        <mxCell id="YdISK77xGLCPP6SEkKly-11" value="" style="shape=cube;whiteSpace=wrap;html=1;boundedLbl=1;backgroundOutline=1;darkOpacity=0.05;darkOpacity2=0.1;size=20;direction=east;flipH=1;fillColor=#fff2cc;strokeColor=#d6b656;" vertex="1" parent="1">
          <mxGeometry x="970" y="122.2" width="40" height="120.92" as="geometry" />
        </mxCell>
        <mxCell id="YdISK77xGLCPP6SEkKly-12" value="" style="shape=cube;whiteSpace=wrap;html=1;boundedLbl=1;backgroundOutline=1;darkOpacity=0.05;darkOpacity2=0.1;size=7;direction=east;flipH=1;fillColor=#ffe6cc;strokeColor=#d79b00;" vertex="1" parent="1">
          <mxGeometry x="960" y="703.0600000000001" width="30" height="20" as="geometry" />
        </mxCell>
        <mxCell id="YdISK77xGLCPP6SEkKly-13" value="" style="shape=cube;whiteSpace=wrap;html=1;boundedLbl=1;backgroundOutline=1;darkOpacity=0.05;darkOpacity2=0.1;size=7;direction=east;flipH=1;fillColor=#fff2cc;strokeColor=#d6b656;" vertex="1" parent="1">
          <mxGeometry x="960" y="663.8800000000001" width="30" height="20" as="geometry" />
        </mxCell>
        <mxCell id="YdISK77xGLCPP6SEkKly-14" value="卷积层2" style="text;html=1;strokeColor=none;fillColor=none;align=left;verticalAlign=middle;whiteSpace=wrap;rounded=0;fontStyle=1" vertex="1" parent="1">
          <mxGeometry x="1001" y="660.0000000000001" width="138" height="23.88" as="geometry" />
        </mxCell>
        <mxCell id="YdISK77xGLCPP6SEkKly-15" value="" style="shape=cube;whiteSpace=wrap;html=1;boundedLbl=1;backgroundOutline=1;darkOpacity=0.05;darkOpacity2=0.1;size=20;direction=east;flipH=1;fillColor=#dae8fc;strokeColor=#6c8ebf;" vertex="1" parent="1">
          <mxGeometry x="40" y="90" width="20" height="230" as="geometry" />
        </mxCell>
        <mxCell id="YdISK77xGLCPP6SEkKly-33" style="edgeStyle=orthogonalEdgeStyle;rounded=0;orthogonalLoop=1;jettySize=auto;html=1;exitX=0;exitY=0;exitDx=0;exitDy=105;exitPerimeter=0;entryX=1.013;entryY=0.463;entryDx=0;entryDy=0;entryPerimeter=0;" edge="1" parent="1" source="YdISK77xGLCPP6SEkKly-17" target="YdISK77xGLCPP6SEkKly-3">
          <mxGeometry relative="1" as="geometry" />
        </mxCell>
        <mxCell id="YdISK77xGLCPP6SEkKly-17" value="" style="shape=cube;whiteSpace=wrap;html=1;boundedLbl=1;backgroundOutline=1;darkOpacity=0.05;darkOpacity2=0.1;size=20;direction=east;flipH=1;fillColor=#dae8fc;strokeColor=#6c8ebf;" vertex="1" parent="1">
          <mxGeometry x="50" y="90" width="20" height="230" as="geometry" />
        </mxCell>
        <mxCell id="YdISK77xGLCPP6SEkKly-19" value="" style="shape=cube;whiteSpace=wrap;html=1;boundedLbl=1;backgroundOutline=1;darkOpacity=0.05;darkOpacity2=0.1;size=20;direction=east;flipH=1;fillColor=#f8cecc;strokeColor=#b85450;" vertex="1" parent="1">
          <mxGeometry x="26.73" y="350" width="20" height="190" as="geometry" />
        </mxCell>
        <mxCell id="YdISK77xGLCPP6SEkKly-36" style="edgeStyle=orthogonalEdgeStyle;rounded=0;orthogonalLoop=1;jettySize=auto;html=1;exitX=0;exitY=0;exitDx=0;exitDy=49.99999999999999;exitPerimeter=0;" edge="1" parent="1" source="YdISK77xGLCPP6SEkKly-21">
          <mxGeometry relative="1" as="geometry">
            <mxPoint x="310" y="443.27272727272725" as="targetPoint" />
          </mxGeometry>
        </mxCell>
        <mxCell id="YdISK77xGLCPP6SEkKly-21" value="" style="shape=cube;whiteSpace=wrap;html=1;boundedLbl=1;backgroundOutline=1;darkOpacity=0.05;darkOpacity2=0.1;size=20;direction=east;flipH=1;fillColor=#d5e8d4;strokeColor=#82b366;" vertex="1" parent="1">
          <mxGeometry x="160" y="393.52000000000004" width="36" height="120" as="geometry" />
        </mxCell>
        <mxCell id="YdISK77xGLCPP6SEkKly-48" style="edgeStyle=orthogonalEdgeStyle;rounded=0;orthogonalLoop=1;jettySize=auto;html=1;exitX=1;exitY=0.5;exitDx=0;exitDy=0;entryX=0;entryY=0.5;entryDx=0;entryDy=0;fontSize=18;" edge="1" parent="1" source="YdISK77xGLCPP6SEkKly-23" target="YdISK77xGLCPP6SEkKly-45">
          <mxGeometry relative="1" as="geometry" />
        </mxCell>
        <mxCell id="YdISK77xGLCPP6SEkKly-23" value="乘" style="ellipse;whiteSpace=wrap;html=1;aspect=fixed;" vertex="1" parent="1">
          <mxGeometry x="670" y="170" width="25.31" height="25.31" as="geometry" />
        </mxCell>
        <mxCell id="YdISK77xGLCPP6SEkKly-24" style="edgeStyle=orthogonalEdgeStyle;rounded=0;orthogonalLoop=1;jettySize=auto;html=1;exitX=1;exitY=0.5;exitDx=0;exitDy=0;entryX=0.5;entryY=1;entryDx=0;entryDy=0;" edge="1" parent="1" source="YdISK77xGLCPP6SEkKly-25" target="YdISK77xGLCPP6SEkKly-23">
          <mxGeometry relative="1" as="geometry" />
        </mxCell>
        <mxCell id="YdISK77xGLCPP6SEkKly-25" value="Sigmoid" style="rounded=0;whiteSpace=wrap;html=1;" vertex="1" parent="1">
          <mxGeometry x="525" y="403.86" width="120" height="60" as="geometry" />
        </mxCell>
        <mxCell id="YdISK77xGLCPP6SEkKly-28" value="" style="shape=cube;whiteSpace=wrap;html=1;boundedLbl=1;backgroundOutline=1;darkOpacity=0.05;darkOpacity2=0.1;size=20;direction=east;flipH=1;fillColor=#f8cecc;strokeColor=#b85450;" vertex="1" parent="1">
          <mxGeometry x="40.00000000000001" y="345.92" width="20" height="190" as="geometry" />
        </mxCell>
        <mxCell id="YdISK77xGLCPP6SEkKly-32" style="edgeStyle=orthogonalEdgeStyle;rounded=0;orthogonalLoop=1;jettySize=auto;html=1;exitX=0;exitY=0;exitDx=0;exitDy=85;exitPerimeter=0;entryX=1.005;entryY=0.324;entryDx=0;entryDy=0;entryPerimeter=0;" edge="1" parent="1" source="YdISK77xGLCPP6SEkKly-29" target="YdISK77xGLCPP6SEkKly-21">
          <mxGeometry relative="1" as="geometry" />
        </mxCell>
        <mxCell id="YdISK77xGLCPP6SEkKly-29" value="" style="shape=cube;whiteSpace=wrap;html=1;boundedLbl=1;backgroundOutline=1;darkOpacity=0.05;darkOpacity2=0.1;size=20;direction=east;flipH=1;fillColor=#f8cecc;strokeColor=#b85450;" vertex="1" parent="1">
          <mxGeometry x="50.00000000000001" y="350" width="20" height="190" as="geometry" />
        </mxCell>
        <mxCell id="YdISK77xGLCPP6SEkKly-31" value="" style="shape=cube;whiteSpace=wrap;html=1;boundedLbl=1;backgroundOutline=1;darkOpacity=0.05;darkOpacity2=0.1;size=40;direction=east;flipH=1;fillColor=#ffe6cc;strokeColor=#d79b00;" vertex="1" parent="1">
          <mxGeometry x="310" y="390" width="60" height="104.8" as="geometry" />
        </mxCell>
        <mxCell id="YdISK77xGLCPP6SEkKly-38" value="" style="endArrow=classic;html=1;rounded=0;" edge="1" parent="1" source="YdISK77xGLCPP6SEkKly-31">
          <mxGeometry width="50" height="50" relative="1" as="geometry">
            <mxPoint x="520" y="380" as="sourcePoint" />
            <mxPoint x="520" y="440" as="targetPoint" />
          </mxGeometry>
        </mxCell>
        <mxCell id="YdISK77xGLCPP6SEkKly-41" style="edgeStyle=orthogonalEdgeStyle;rounded=0;orthogonalLoop=1;jettySize=auto;html=1;exitX=0;exitY=0;exitDx=0;exitDy=32.4;exitPerimeter=0;" edge="1" parent="1" source="YdISK77xGLCPP6SEkKly-39">
          <mxGeometry relative="1" as="geometry">
            <mxPoint x="670" y="175.9999999999999" as="targetPoint" />
          </mxGeometry>
        </mxCell>
        <mxCell id="YdISK77xGLCPP6SEkKly-39" value="" style="shape=cube;whiteSpace=wrap;html=1;boundedLbl=1;backgroundOutline=1;darkOpacity=0.05;darkOpacity2=0.1;size=40;direction=east;flipH=1;fillColor=#ffe6cc;strokeColor=#d79b00;" vertex="1" parent="1">
          <mxGeometry x="330" y="144.08" width="60" height="104.8" as="geometry" />
        </mxCell>
        <mxCell id="YdISK77xGLCPP6SEkKly-44" value="" style="curved=1;endArrow=classic;html=1;rounded=0;" edge="1" parent="1">
          <mxGeometry width="50" height="50" relative="1" as="geometry">
            <mxPoint x="90" y="190" as="sourcePoint" />
            <mxPoint x="820" y="170" as="targetPoint" />
            <Array as="points">
              <mxPoint x="130" y="60" />
              <mxPoint x="840" y="60" />
            </Array>
          </mxGeometry>
        </mxCell>
        <mxCell id="YdISK77xGLCPP6SEkKly-49" style="edgeStyle=orthogonalEdgeStyle;rounded=0;orthogonalLoop=1;jettySize=auto;html=1;exitX=1;exitY=0.5;exitDx=0;exitDy=0;fontSize=18;" edge="1" parent="1" source="YdISK77xGLCPP6SEkKly-45" target="YdISK77xGLCPP6SEkKly-11">
          <mxGeometry relative="1" as="geometry" />
        </mxCell>
        <mxCell id="YdISK77xGLCPP6SEkKly-45" value="&lt;b&gt;&lt;font style=&quot;font-size: 18px;&quot;&gt;+&lt;/font&gt;&lt;/b&gt;" style="ellipse;whiteSpace=wrap;html=1;aspect=fixed;" vertex="1" parent="1">
          <mxGeometry x="800" y="170" width="25.31" height="25.31" as="geometry" />
        </mxCell>
        <mxCell id="YdISK77xGLCPP6SEkKly-72" value="" style="swimlane;startSize=0;fontSize=18;" vertex="1" parent="1">
          <mxGeometry x="110" y="712.94" width="80" height="40" as="geometry" />
        </mxCell>
        <mxCell id="YdISK77xGLCPP6SEkKly-73" value="3*3" style="text;html=1;align=center;verticalAlign=middle;resizable=0;points=[];autosize=1;strokeColor=none;fillColor=none;fontSize=18;" vertex="1" parent="YdISK77xGLCPP6SEkKly-72">
          <mxGeometry x="15" y="5" width="50" height="30" as="geometry" />
        </mxCell>
        <mxCell id="YdISK77xGLCPP6SEkKly-74" value="" style="swimlane;startSize=0;fontSize=18;" vertex="1" parent="1">
          <mxGeometry x="110" y="792.94" width="80" height="40" as="geometry" />
        </mxCell>
        <mxCell id="YdISK77xGLCPP6SEkKly-75" value="1*1" style="text;html=1;align=center;verticalAlign=middle;resizable=0;points=[];autosize=1;strokeColor=none;fillColor=none;fontSize=18;" vertex="1" parent="YdISK77xGLCPP6SEkKly-74">
          <mxGeometry x="15" y="5" width="50" height="30" as="geometry" />
        </mxCell>
        <mxCell id="YdISK77xGLCPP6SEkKly-76" value="" style="endArrow=classic;html=1;rounded=0;fontSize=18;entryX=0.5;entryY=0;entryDx=0;entryDy=0;exitX=0.5;exitY=1;exitDx=0;exitDy=0;" edge="1" parent="1" source="YdISK77xGLCPP6SEkKly-72" target="YdISK77xGLCPP6SEkKly-74">
          <mxGeometry width="50" height="50" relative="1" as="geometry">
            <mxPoint x="70" y="62.94" as="sourcePoint" />
            <mxPoint x="70" y="102.94" as="targetPoint" />
          </mxGeometry>
        </mxCell>
        <mxCell id="YdISK77xGLCPP6SEkKly-77" value="" style="endArrow=classic;html=1;rounded=0;fontSize=18;exitX=0.5;exitY=1;exitDx=0;exitDy=0;" edge="1" parent="1" source="YdISK77xGLCPP6SEkKly-74">
          <mxGeometry width="50" height="50" relative="1" as="geometry">
            <mxPoint x="80" y="72.94" as="sourcePoint" />
            <mxPoint x="150" y="882.94" as="targetPoint" />
          </mxGeometry>
        </mxCell>
        <mxCell id="YdISK77xGLCPP6SEkKly-78" value="" style="swimlane;startSize=0;fontSize=18;" vertex="1" parent="1">
          <mxGeometry x="110" y="632.94" width="80" height="40" as="geometry" />
        </mxCell>
        <mxCell id="YdISK77xGLCPP6SEkKly-79" value="1*1" style="text;html=1;align=center;verticalAlign=middle;resizable=0;points=[];autosize=1;strokeColor=none;fillColor=none;fontSize=18;" vertex="1" parent="YdISK77xGLCPP6SEkKly-78">
          <mxGeometry x="15" y="5" width="50" height="30" as="geometry" />
        </mxCell>
        <mxCell id="YdISK77xGLCPP6SEkKly-80" value="" style="endArrow=classic;html=1;rounded=0;fontSize=18;entryX=0.5;entryY=0;entryDx=0;entryDy=0;" edge="1" parent="1" target="YdISK77xGLCPP6SEkKly-78">
          <mxGeometry width="50" height="50" relative="1" as="geometry">
            <mxPoint x="150" y="592.94" as="sourcePoint" />
            <mxPoint x="160" y="582.94" as="targetPoint" />
          </mxGeometry>
        </mxCell>
        <mxCell id="YdISK77xGLCPP6SEkKly-81" value="" style="endArrow=classic;html=1;rounded=0;fontSize=18;entryX=0.5;entryY=0;entryDx=0;entryDy=0;exitX=0.5;exitY=1;exitDx=0;exitDy=0;" edge="1" parent="1" source="YdISK77xGLCPP6SEkKly-78" target="YdISK77xGLCPP6SEkKly-72">
          <mxGeometry width="50" height="50" relative="1" as="geometry">
            <mxPoint x="160" y="602.94" as="sourcePoint" />
            <mxPoint x="160" y="642.94" as="targetPoint" />
          </mxGeometry>
        </mxCell>
        <mxCell id="YdISK77xGLCPP6SEkKly-82" value="" style="curved=1;endArrow=classic;html=1;rounded=0;fontSize=18;" edge="1" parent="1">
          <mxGeometry width="50" height="50" relative="1" as="geometry">
            <mxPoint x="150" y="610" as="sourcePoint" />
            <mxPoint x="160" y="860" as="targetPoint" />
            <Array as="points">
              <mxPoint x="260" y="620" />
              <mxPoint x="270" y="790" />
            </Array>
          </mxGeometry>
        </mxCell>
      </root>
    </mxGraphModel>
  </diagram>
</mxfile>
